<?xml version="1.0" standalone="no"?>
<!DOCTYPE svg PUBLIC "-//W3C//DTD SVG 20010904//EN"
 "http://www.w3.org/TR/2001/REC-SVG-20010904/DTD/svg10.dtd">
<svg version="1.0" xmlns="http://www.w3.org/2000/svg"
 width="512.000000pt" height="512.000000pt" viewBox="0 0 512.000000 512.000000"
 preserveAspectRatio="xMidYMid meet">
<metadata>
Created by potrace 1.11, written by Peter Selinger 2001-2013
</metadata>
<g transform="translate(0.000000,512.000000) scale(0.100000,-0.100000)"
fill="#000000" stroke="none">
<path d="M368 5104 c-32 -7 -81 -25 -109 -39 -65 -33 -167 -135 -202 -201 -60
-115 -57 19 -57 -2314 0 -2076 1 -2137 20 -2196 10 -34 31 -85 47 -114 34 -63
126 -151 195 -186 98 -50 130 -52 756 -53 l582 -1 0 160 0 159 -587 3 -588 3
-31 22 c-17 12 -40 35 -50 50 -18 27 -19 91 -22 2149 -2 2353 -8 2166 65 2221
l36 28 1229 3 1228 2 1 -332 c0 -183 2 -344 5 -358 21 -125 115 -228 236 -258
31 -8 159 -12 382 -12 l336 0 0 -240 0 -240 160 0 160 0 0 338 c-1 240 -4 345
-13 365 -7 15 -239 255 -516 533 -399 398 -512 506 -540 514 -23 6 -510 10
-1351 9 -1082 -1 -1325 -3 -1372 -15z"/>
<path d="M1481 2549 c-68 -12 -172 -55 -244 -103 -107 -71 -198 -194 -249
-336 -22 -62 -23 -78 -23 -350 0 -272 1 -288 23 -350 22 -60 68 -151 95 -188
39 -51 146 -146 200 -176 115 -64 177 -79 317 -79 103 0 136 4 190 22 248 86
423 300 445 544 l6 67 -160 0 c-136 0 -161 -2 -161 -15 0 -21 -1 -23 -17 -80
-30 -100 -111 -179 -219 -213 -35 -11 -133 -9 -179 3 -77 21 -155 91 -194 174
-25 55 -26 62 -28 281 -3 216 -2 227 21 282 73 178 259 253 432 174 83 -38
154 -123 170 -202 5 -22 9 -42 10 -46 1 -5 2 -15 3 -23 1 -13 26 -15 162 -15
l161 0 -7 68 c-14 144 -81 280 -190 387 -118 116 -254 175 -415 180 -52 1
-119 -1 -149 -6z"/>
<path d="M2768 2545 c-32 -8 -81 -26 -110 -41 -53 -27 -188 -153 -188 -176 0
-6 -6 -19 -13 -27 -59 -69 -69 -322 -16 -411 5 -8 15 -28 23 -45 15 -32 59
-88 89 -114 10 -9 28 -24 40 -34 27 -23 80 -51 139 -73 33 -12 94 -17 263 -21
121 -2 236 -9 257 -14 99 -25 141 -167 73 -247 -46 -55 -71 -60 -280 -62 -118
0 -203 4 -221 10 -45 17 -84 61 -96 107 l-10 43 -160 0 -160 0 7 -47 c16 -125
64 -221 148 -299 120 -111 195 -132 488 -133 294 0 375 23 495 143 69 69 107
137 129 227 57 248 -85 490 -334 568 -45 14 -98 18 -261 20 -113 1 -221 6
-242 12 -99 26 -141 167 -73 247 45 54 72 60 267 62 99 0 195 -2 215 -6 48 -9
108 -70 117 -118 l7 -36 160 0 160 0 -6 48 c-9 67 -24 121 -47 167 -23 44 -74
114 -98 131 -8 7 -26 22 -40 34 -29 25 -79 52 -142 76 -60 23 -495 30 -580 9z"/>
<path d="M4208 2545 c-87 -22 -154 -60 -222 -128 -72 -71 -109 -137 -130 -227
-57 -242 74 -475 317 -566 32 -12 94 -17 257 -20 256 -5 271 -7 310 -40 39
-33 50 -54 56 -107 7 -56 -16 -108 -63 -144 -36 -28 -37 -28 -217 -31 -100 -2
-200 -1 -224 3 -58 9 -109 55 -124 111 l-12 44 -158 0 -158 0 6 -52 c13 -116
64 -217 147 -294 120 -112 196 -132 487 -132 226 0 294 10 381 53 53 27 189
154 189 177 0 6 6 19 13 27 23 26 49 127 52 200 4 73 -19 196 -40 221 -7 8
-15 24 -19 35 -5 18 -14 30 -67 92 -25 30 -82 73 -121 94 -91 47 -115 51 -338
55 -256 5 -271 7 -310 40 -39 33 -50 54 -56 107 -7 56 16 108 63 144 l36 28
191 3 c105 2 206 1 224 -3 49 -9 100 -59 113 -111 l11 -44 160 0 160 0 -7 48
c-9 71 -26 135 -40 152 -7 8 -15 24 -19 35 -5 18 -14 30 -67 92 -43 50 -114
96 -201 129 -60 23 -495 30 -580 9z"/>
</g>
</svg>
